<svg width="403" height="227" viewBox="0 0 403 227" fill="none" xmlns="http://www.w3.org/2000/svg">
<g filter="url(#filter0_d_61_198)">
<path d="M7.08984 177.305C6.60547 176.134 6.36328 174.752 6.36328 173.157C6.36328 171.563 6.42383 170.261 6.54492 169.252C6.66602 168.223 6.82747 167.294 7.0293 166.467C7.51367 164.61 8.10905 163.682 8.81543 163.682H35.4863C36.6569 163.682 37.444 165.417 37.8477 168.889C37.9486 169.857 37.999 170.856 37.999 171.886C37.999 174.308 37.7367 176.114 37.2119 177.305C35.4762 171.916 33.2259 168.465 30.4609 166.951C29.8353 166.588 29.2197 166.406 28.6143 166.406C28.0088 166.406 27.5345 166.568 27.1914 166.891C26.8483 167.193 26.5658 167.688 26.3438 168.374C25.9805 169.585 25.7988 171.038 25.7988 172.733V184.086L25.8291 193.35V202.129C25.8291 204.107 26.0814 205.57 26.5859 206.519C27.1107 207.447 27.6354 208.153 28.1602 208.638C28.7051 209.122 29.3408 209.576 30.0674 210H14.5977C16.0508 208.809 16.9792 207.83 17.3828 207.063C18.1296 205.671 18.5029 204.026 18.5029 202.129V174.853C18.5029 171.684 18.3818 169.646 18.1396 168.737C17.8975 167.809 17.6048 167.193 17.2617 166.891C16.9186 166.568 16.4443 166.406 15.8389 166.406C15.2334 166.406 14.6178 166.588 13.9922 166.951C13.3665 167.294 12.751 167.758 12.1455 168.344C11.5602 168.909 10.9951 169.575 10.4502 170.342C9.92546 171.089 9.44108 171.866 8.99707 172.673C8.12923 174.267 7.49349 175.811 7.08984 177.305ZM64.2158 191.987L64.1855 183.692C64.1855 182.562 64.0039 181.795 63.6406 181.392C62.9746 180.645 61.7435 180.271 59.9473 180.271H55.1641C52.6615 180.271 51.2891 180.978 51.0469 182.391C50.9863 182.794 50.9561 183.228 50.9561 183.692L50.9258 192.774C50.9258 200.605 51.3294 205.509 52.1367 207.487C52.4596 208.254 52.9642 209.092 53.6504 210H42.2979C42.9437 208.466 43.3171 207.185 43.418 206.155C43.5391 205.126 43.6602 203.854 43.7812 202.341C44.0033 199.172 44.1143 195.549 44.1143 191.473C44.1143 187.396 44.1042 184.59 44.084 183.057C44.0638 181.503 44.0436 179.989 44.0234 178.516C43.8822 172.4 43.6904 168.737 43.4482 167.526C43.2061 166.295 43.0042 165.468 42.8428 165.044L42.2979 163.682H53.6504C52.1973 165.296 51.39 167.476 51.2285 170.221C51.168 171.048 51.1377 171.916 51.1377 172.824C51.1377 173.732 51.2184 174.449 51.3799 174.974C51.5615 175.478 51.8542 175.852 52.2578 176.094C52.8027 176.457 54.0843 176.639 56.1025 176.639H58.9785C61.0371 176.639 62.3086 176.487 62.793 176.185C63.6003 175.66 64.0039 174.52 64.0039 172.764C64.0039 168.465 63.1562 165.438 61.4609 163.682H72.8135C72.208 165.014 71.8346 166.245 71.6934 167.375C71.5723 168.505 71.4814 169.595 71.4209 170.645C71.3604 171.674 71.2998 172.875 71.2393 174.247C71.1787 175.619 71.1283 177.042 71.0879 178.516C71.0273 181.947 70.9971 185.055 70.9971 187.84C70.9971 199.162 71.4209 206.095 72.2686 208.638C72.4098 209.062 72.5915 209.516 72.8135 210H61.4609C62.4701 208.648 63.0856 207.487 63.3076 206.519C63.5296 205.53 63.7012 204.369 63.8223 203.037C64.0846 200.474 64.2158 196.791 64.2158 191.987ZM103.224 198.799C103.769 199.546 104.041 200.625 104.041 202.038C104.041 203.451 103.981 204.581 103.859 205.429C103.738 206.256 103.547 207.013 103.284 207.699C102.679 209.233 101.882 210 100.893 210H76.3712C77.9252 209.173 78.9545 208.375 79.4591 207.608C80.4077 206.175 80.882 204.359 80.882 202.159C80.8618 196.771 80.8517 191.896 80.8517 187.537V171.613C80.8517 168.606 80.3774 166.426 79.4288 165.074C79.0655 164.59 78.6316 164.126 78.1271 163.682H100.893C102.265 164.166 103.204 165.861 103.708 168.768C103.849 169.575 103.92 170.362 103.92 171.129C103.92 172.703 103.688 173.954 103.224 174.883L101.589 171.613C100.499 169.474 98.935 168.041 96.8966 167.314C95.7664 166.911 94.4949 166.709 93.0821 166.709C91.6694 166.709 90.6603 166.759 90.0548 166.86C89.4493 166.941 88.9851 167.153 88.6622 167.496C88.1375 168.081 87.8751 169.201 87.8751 170.856C87.8751 172.491 87.9155 173.632 87.9962 174.277C88.0769 174.903 88.2687 175.418 88.5714 175.821C89.1971 176.608 90.519 177.002 92.5372 177.002H102.043C101.579 178.173 101.105 179 100.62 179.484C99.6515 180.453 98.3396 180.938 96.6847 180.938C96.0389 180.938 95.4233 180.867 94.838 180.726C93.7482 180.463 92.7895 180.332 91.962 180.332C91.1346 180.332 90.4484 180.413 89.9034 180.574C89.3787 180.715 88.965 180.948 88.6622 181.271C88.1375 181.836 87.8751 182.855 87.8751 184.328V198.769C87.8751 202.563 88.087 204.813 88.5109 205.52C88.9347 206.226 89.4493 206.65 90.0548 206.791C90.6603 206.912 91.6694 206.973 93.0821 206.973C94.4949 206.973 95.7765 206.771 96.9269 206.367C98.0773 205.964 99.0359 205.398 99.8028 204.672C100.59 203.945 101.236 203.088 101.74 202.099C102.245 201.09 102.739 199.99 103.224 198.799ZM205.219 177.305C204.734 176.134 204.492 174.752 204.492 173.157C204.492 171.563 204.553 170.261 204.674 169.252C204.795 168.223 204.956 167.294 205.158 166.467C205.642 164.61 206.238 163.682 206.944 163.682H233.615C234.786 163.682 235.573 165.417 235.976 168.889C236.077 169.857 236.128 170.856 236.128 171.886C236.128 174.308 235.865 176.114 235.341 177.305C233.605 171.916 231.355 168.465 228.59 166.951C227.964 166.588 227.348 166.406 226.743 166.406C226.138 166.406 225.663 166.568 225.32 166.891C224.977 167.193 224.695 167.688 224.473 168.374C224.109 169.585 223.928 171.038 223.928 172.733V184.086L223.958 193.35V202.129C223.958 204.107 224.21 205.57 224.715 206.519C225.239 207.447 225.764 208.153 226.289 208.638C226.834 209.122 227.47 209.576 228.196 210H212.726C214.18 208.809 215.108 207.83 215.512 207.063C216.258 205.671 216.632 204.026 216.632 202.129V174.853C216.632 171.684 216.511 169.646 216.268 168.737C216.026 167.809 215.734 167.193 215.39 166.891C215.047 166.568 214.573 166.406 213.968 166.406C213.362 166.406 212.747 166.588 212.121 166.951C211.495 167.294 210.88 167.758 210.274 168.344C209.689 168.909 209.124 169.575 208.579 170.342C208.054 171.089 207.57 171.866 207.126 172.673C206.258 174.267 205.622 175.811 205.219 177.305ZM263.359 194.47L263.511 182.845C263.511 174.711 263.208 169.514 262.602 167.254C262.32 166.164 261.977 165.367 261.573 164.862C261.19 164.358 260.877 163.964 260.635 163.682H270.564L269.929 164.529C269.02 165.861 268.516 167.365 268.415 169.04C268.314 170.715 268.233 172.41 268.173 174.126C268.132 175.841 268.092 177.547 268.052 179.242C268.011 182.088 267.991 185.267 267.991 188.778V192.472C267.991 198.991 266.942 203.663 264.843 206.488C262.764 209.233 259.373 210.605 254.671 210.605C245.569 210.605 241.038 204.763 241.078 193.077L241.108 170.402C241.108 167.214 240.543 164.973 239.413 163.682H250.887C249.696 165.115 249.101 167.153 249.101 169.797C249.101 171.331 249.09 172.905 249.07 174.52L248.949 184.207C248.929 185.801 248.919 187.446 248.919 189.142C248.919 195.216 249.101 199.071 249.464 200.706C249.827 202.321 250.271 203.582 250.796 204.49C252.007 206.549 253.803 207.578 256.185 207.578C259.858 207.578 262.118 204.894 262.966 199.525C263.228 197.931 263.359 196.246 263.359 194.47ZM287.488 181.24C285.147 181.24 283.977 182.623 283.977 185.388C283.977 196.851 284.168 203.602 284.552 205.641C284.774 206.872 285.056 207.79 285.4 208.396L286.308 210H275.561C276.207 208.466 276.58 207.185 276.681 206.155C276.802 205.126 276.903 204.026 276.984 202.855C277.145 200.474 277.226 197.275 277.226 193.259C277.226 188.395 277.145 183.955 276.984 179.938L276.651 171.613C276.57 169.514 276.388 168.051 276.106 167.224C275.662 165.912 274.935 164.731 273.926 163.682H289.941C294.825 163.682 298.357 164.166 300.536 165.135C302.837 166.144 303.987 167.869 303.987 170.312C303.987 172.451 303.19 174.459 301.596 176.336C300.102 178.072 298.145 179.454 295.723 180.483C296.026 188.233 298.458 195.671 303.019 202.795C304.976 205.883 306.974 208.285 309.013 210H297.66C295.682 207.296 293.856 201.816 292.181 193.562C291.616 190.696 291.242 188.314 291.061 186.417C290.899 184.52 290.758 183.38 290.637 182.996C290.536 182.592 290.364 182.27 290.122 182.027C289.638 181.503 288.76 181.24 287.488 181.24ZM294.451 175.852C295.016 175.246 295.41 174.6 295.632 173.914C295.874 173.228 295.995 172.572 295.995 171.946C295.995 171.3 295.904 170.665 295.723 170.039C295.561 169.393 295.228 168.828 294.724 168.344C293.614 167.254 291.676 166.709 288.911 166.709C287.882 166.709 287.044 166.749 286.399 166.83C285.773 166.911 285.279 167.133 284.915 167.496C284.29 168.102 283.977 169.646 283.977 172.128C283.977 174.308 284.209 175.7 284.673 176.306C285.501 177.375 286.752 177.91 288.427 177.91C290.102 177.91 291.384 177.718 292.272 177.335C293.18 176.931 293.906 176.437 294.451 175.852ZM307.923 177.305C307.439 176.134 307.196 174.752 307.196 173.157C307.196 171.563 307.257 170.261 307.378 169.252C307.499 168.223 307.661 167.294 307.862 166.467C308.347 164.61 308.942 163.682 309.649 163.682H336.32C337.49 163.682 338.277 165.417 338.681 168.889C338.782 169.857 338.832 170.856 338.832 171.886C338.832 174.308 338.57 176.114 338.045 177.305C336.309 171.916 334.059 168.465 331.294 166.951C330.668 166.588 330.053 166.406 329.447 166.406C328.842 166.406 328.368 166.568 328.025 166.891C327.681 167.193 327.399 167.688 327.177 168.374C326.814 169.585 326.632 171.038 326.632 172.733V184.086L326.662 193.35V202.129C326.662 204.107 326.915 205.57 327.419 206.519C327.944 207.447 328.469 208.153 328.993 208.638C329.538 209.122 330.174 209.576 330.901 210H315.431C316.884 208.809 317.812 207.83 318.216 207.063C318.963 205.671 319.336 204.026 319.336 202.129V174.853C319.336 171.684 319.215 169.646 318.973 168.737C318.731 167.809 318.438 167.193 318.095 166.891C317.752 166.568 317.278 166.406 316.672 166.406C316.067 166.406 315.451 166.588 314.825 166.951C314.2 167.294 313.584 167.758 312.979 168.344C312.393 168.909 311.828 169.575 311.283 170.342C310.759 171.089 310.274 171.866 309.83 172.673C308.962 174.267 308.327 175.811 307.923 177.305ZM366.306 198.799C366.851 199.586 367.123 200.535 367.123 201.645C367.123 202.755 367.043 203.713 366.881 204.521C366.74 205.328 366.538 206.095 366.276 206.821C365.67 208.416 364.903 209.475 363.975 210H339.635C341.229 209.011 342.269 208.153 342.753 207.427C343.682 206.054 344.146 204.278 344.146 202.099C344.126 196.73 344.116 191.876 344.116 187.537V171.674C344.116 168.747 343.631 166.598 342.662 165.226C342.319 164.721 341.895 164.206 341.391 163.682H353.833C352.643 165.397 351.966 167.163 351.805 168.979C351.765 169.585 351.744 170.251 351.744 170.978V198.708C351.744 202.482 351.946 204.743 352.35 205.489C352.754 206.216 353.238 206.65 353.803 206.791C354.368 206.912 355.226 206.973 356.376 206.973C357.527 206.973 358.617 206.771 359.646 206.367C360.675 205.964 361.593 205.398 362.401 204.672C363.773 203.421 365.075 201.463 366.306 198.799ZM393.885 198.799C394.43 199.546 394.702 200.625 394.702 202.038C394.702 203.451 394.642 204.581 394.521 205.429C394.4 206.256 394.208 207.013 393.946 207.699C393.34 209.233 392.543 210 391.554 210H367.033C368.587 209.173 369.616 208.375 370.12 207.608C371.069 206.175 371.543 204.359 371.543 202.159C371.523 196.771 371.513 191.896 371.513 187.537V171.613C371.513 168.606 371.039 166.426 370.09 165.074C369.727 164.59 369.293 164.126 368.788 163.682H391.554C392.926 164.166 393.865 165.861 394.369 168.768C394.511 169.575 394.581 170.362 394.581 171.129C394.581 172.703 394.349 173.954 393.885 174.883L392.25 171.613C391.16 169.474 389.596 168.041 387.558 167.314C386.428 166.911 385.156 166.709 383.743 166.709C382.331 166.709 381.322 166.759 380.716 166.86C380.111 166.941 379.646 167.153 379.324 167.496C378.799 168.081 378.536 169.201 378.536 170.856C378.536 172.491 378.577 173.632 378.658 174.277C378.738 174.903 378.93 175.418 379.233 175.821C379.858 176.608 381.18 177.002 383.199 177.002H392.704C392.24 178.173 391.766 179 391.282 179.484C390.313 180.453 389.001 180.938 387.346 180.938C386.7 180.938 386.085 180.867 385.499 180.726C384.409 180.463 383.451 180.332 382.623 180.332C381.796 180.332 381.11 180.413 380.565 180.574C380.04 180.715 379.626 180.948 379.324 181.271C378.799 181.836 378.536 182.855 378.536 184.328V198.769C378.536 202.563 378.748 204.813 379.172 205.52C379.596 206.226 380.111 206.65 380.716 206.791C381.322 206.912 382.331 206.973 383.743 206.973C385.156 206.973 386.438 206.771 387.588 206.367C388.739 205.964 389.697 205.398 390.464 204.672C391.251 203.945 391.897 203.088 392.402 202.099C392.906 201.09 393.401 199.99 393.885 198.799Z" fill="white"/>
<path d="M26.2031 113.629C25.543 118.91 25.2129 123.125 25.2129 126.273C25.2129 129.371 25.5938 132.24 26.3555 134.881C27.1172 137.521 28.209 139.807 29.6309 141.736C32.6777 145.85 36.5371 147.906 41.209 147.906C50.1465 147.906 54.6152 142.98 54.6152 133.129C54.6152 125.207 50.0195 116.803 40.8281 107.916L32.9062 100.223C25.9492 93.5195 21.2012 88.1367 18.6621 84.0742C13.6348 76.0508 11.1211 68.0781 11.1211 60.1562C11.1211 53.707 13.2031 48.2988 17.3672 43.9316C22.3945 38.5996 29.6309 35.9336 39.0762 35.9336C42.7832 35.9336 45.5762 36.1113 47.4551 36.4668C50.959 37.127 53.2949 37.457 54.4629 37.457C57.4082 37.457 59.6934 36.543 61.3184 34.7148C61.9277 34.0547 62.5879 33.1914 63.2988 32.125C67.0059 34.207 68.8594 41.8496 68.8594 55.0527C68.8594 63.4824 68.0215 69.7031 66.3457 73.7148C65.7871 75.0859 65.1523 75.9492 64.4414 76.3047C63.6289 68.6367 61.1406 61.7812 56.9766 55.7383C52.1016 48.6289 46.4648 45.0742 40.0664 45.0742C34.582 45.0742 31.2051 47.5879 29.9355 52.6152C29.5801 54.0371 29.4023 55.8145 29.4023 57.9473C29.4023 60.0293 30.0371 62.416 31.3066 65.1074C32.5762 67.7988 34.2266 70.4902 36.2578 73.1816C38.3398 75.8223 40.7266 78.4883 43.418 81.1797C51.543 89.5078 56.9258 95.1445 59.5664 98.0898C62.2578 101.035 64.6445 104.082 66.7266 107.23C71.2969 114.289 73.582 121.119 73.582 127.721C73.582 135.693 70.4844 142.295 64.2891 147.525C57.8906 152.857 49.6641 155.523 39.6094 155.523C31.2812 155.523 24.1211 153.441 18.1289 149.277C11.5273 144.707 8.22656 138.664 8.22656 131.148C10.207 124.09 14.5234 118.91 21.1758 115.609C22.9531 114.695 24.6289 114.035 26.2031 113.629ZM107.869 37.457C105.99 42.1797 104.898 46.9277 104.593 51.7012C104.288 56.4238 104.06 60.4863 103.908 63.8887C103.755 67.291 103.628 70.8203 103.527 74.4766C103.374 83.0078 103.298 90.7773 103.298 97.7852C103.298 126.527 104.365 144.148 106.497 150.648C106.853 151.766 107.31 152.883 107.869 154H81.5892C83.1634 150.547 84.1029 147.424 84.4076 144.631C84.7123 141.838 84.9916 138.512 85.2455 134.652C85.8548 126.68 86.1595 117.488 86.1595 107.078C86.1595 96.668 86.1341 89.5586 86.0834 85.75C86.0326 81.8906 85.9564 78.1328 85.8548 74.4766C85.4994 56.6523 84.433 45.3281 82.6556 40.5039L81.5892 37.457H107.869ZM137.356 63.8887C137.153 71.3027 137.051 78.9707 137.051 86.8926C137.051 97.709 137.229 109.363 137.585 121.855C137.94 134.348 138.194 141.457 138.346 143.184C138.55 144.859 138.803 146.332 139.108 147.602C139.667 149.938 140.581 152.07 141.85 154H120.598C122.528 151.258 123.671 148.312 124.026 145.164C124.432 142.016 124.737 138.969 124.94 136.023C125.346 130.031 125.55 121.982 125.55 111.877C125.55 99.6387 125.346 88.4668 124.94 78.3613L124.102 57.4141C123.798 49.6953 122.553 44.2109 120.37 40.9609C119.557 39.7422 118.516 38.5742 117.247 37.457H147.03C149.01 46.1406 151.473 55.3574 154.419 65.1074L168.282 109.363L189.534 37.457H219.241C216.753 39.6406 215.128 41.875 214.366 44.1602C213.249 47.6641 212.614 51.7266 212.462 56.3477L211.928 69.8301C211.268 85.623 210.938 99.6387 210.938 111.877C210.938 132.393 211.878 145.418 213.757 150.953C214.112 151.969 214.569 152.984 215.128 154H191.134C192.505 151.309 193.266 148.414 193.419 145.316C193.622 142.168 193.8 137.852 193.952 132.367C194.561 114.34 194.866 101.213 194.866 92.9863C194.866 79.4277 194.739 69.3477 194.485 62.7461L166.454 154L151.6 107.23L137.356 63.8887ZM265.106 147.906C274.856 147.906 281.152 136.023 283.996 112.258C284.961 104.234 285.443 94.7891 285.443 83.9219C285.443 57.0078 278.613 43.5508 264.953 43.5508C251.293 43.5508 244.463 57.0078 244.463 83.9219C244.463 115.66 248.551 135.693 256.727 144.021C259.266 146.611 262.059 147.906 265.106 147.906ZM264.953 155.523C251.445 155.523 241.264 149.176 234.408 136.48C227.807 124.242 224.506 106.723 224.506 83.9219C224.506 60.207 231.793 45.2773 246.367 39.1328C251.496 37 257.691 35.9336 264.953 35.9336C285.774 35.9336 298.494 45.1758 303.115 63.6602C304.639 69.6016 305.4 77.2441 305.4 86.5879C305.4 95.9316 304.588 105.047 302.963 113.934C301.338 122.77 298.85 130.285 295.498 136.48C288.643 149.176 278.461 155.523 264.953 155.523ZM333.136 71.0488C333.035 76.3301 332.984 82.3477 332.984 89.1016C332.984 98.6992 333.162 109.693 333.517 122.084C333.872 134.424 334.152 141.457 334.355 143.184C334.558 144.859 334.812 146.332 335.117 147.602C335.624 149.684 336.412 151.816 337.478 154H317.064C318.587 150.902 319.501 147.881 319.806 144.936C320.162 141.939 320.441 138.969 320.644 136.023C321.05 130.031 321.253 121.982 321.253 111.877C321.253 99.6387 321.05 88.4668 320.644 78.3613L319.806 57.4141C319.501 49.6953 318.283 44.2109 316.15 40.9609C315.287 39.7422 314.22 38.5742 312.951 37.457H336.64C339.636 44.3633 342.81 51.2188 346.162 58.0234L356.521 78.2852L378.763 119.189C378.814 115.99 378.839 112.562 378.839 108.906V97.0234C378.839 71.6328 377.29 53.3008 374.193 42.0273C373.583 39.9453 372.923 38.4219 372.212 37.457L395.14 37.3809C392.601 42.459 391.001 56.7539 390.341 80.2656C390.24 83.9219 390.189 87.4258 390.189 90.7773L390.265 97.1758V128.254C390.265 141.406 390.367 149.988 390.57 154H378.23L356.14 112.867L333.136 71.0488Z" fill="white"/>
</g>
<defs>
<filter id="filter0_d_61_198" x="4.36328" y="30.125" width="392.777" height="182.48" filterUnits="userSpaceOnUse" color-interpolation-filters="sRGB">
<feFlood flood-opacity="0" result="BackgroundImageFix"/>
<feColorMatrix in="SourceAlpha" type="matrix" values="0 0 0 0 0 0 0 0 0 0 0 0 0 0 0 0 0 0 127 0" result="hardAlpha"/>
<feOffset/>
<feGaussianBlur stdDeviation="1"/>
<feComposite in2="hardAlpha" operator="out"/>
<feColorMatrix type="matrix" values="0 0 0 0 0.796078 0 0 0 0 0.843137 0 0 0 0 0.690196 0 0 0 1 0"/>
<feBlend mode="normal" in2="BackgroundImageFix" result="effect1_dropShadow_61_198"/>
<feBlend mode="normal" in="SourceGraphic" in2="effect1_dropShadow_61_198" result="shape"/>
</filter>
</defs>
</svg>
